<svg xmlns="http://www.w3.org/2000/svg" viewBox="0 0 32 32" fill="none">
  <defs>
    <linearGradient id="grad1" x1="0%" y1="0%" x2="100%" y2="100%">
      <stop offset="0%" style="stop-color:#2dd4bf;stop-opacity:1" />
      <stop offset="100%" style="stop-color:#0ea5e9;stop-opacity:1" />
    </linearGradient>
  </defs>
  
  <!-- Background circle -->
  <circle cx="16" cy="16" r="15" fill="url(#grad1)"/>
  
  <!-- Book/Log icon with pages -->
  <path d="M9 8 C9 7.5 9.5 7 10 7 L22 7 C22.5 7 23 7.5 23 8 L23 24 C23 24.5 22.5 25 22 25 L10 25 C9.5 25 9 24.5 9 24 Z" fill="white" opacity="0.95"/>
  
  <!-- Page lines -->
  <line x1="12" y1="11" x2="20" y2="11" stroke="#0ea5e9" stroke-width="1.5" stroke-linecap="round"/>
  <line x1="12" y1="14" x2="20" y2="14" stroke="#2dd4bf" stroke-width="1.5" stroke-linecap="round"/>
  <line x1="12" y1="17" x2="18" y2="17" stroke="#0ea5e9" stroke-width="1.5" stroke-linecap="round"/>
  <line x1="12" y1="20" x2="17" y2="20" stroke="#2dd4bf" stroke-width="1.5" stroke-linecap="round"/>
  
  <!-- Bookmark accent -->
  <path d="M20 7 L20 13 L18 11.5 L16 13 L16 7 Z" fill="#06aedd" opacity="0.8"/>
</svg>
